Coordinates
version=1
nRows=32
nColumns=22
inDegrees=yes

Units are S.I. units (second, meters, Newtons, ...)
If the header above contains a line with 'inDegrees', this indicates whether rotational values are in degrees (yes) or radians (no).

endheader
time	pelvis_tilt	pelvis_list	pelvis_rotation	pelvis_tx	pelvis_ty	pelvis_tz	hip_flexion_r	hip_adduction_r	hip_rotation_r	knee_angle_r	ankle_angle_r	subtalar_angle_r	hip_flexion_l	hip_adduction_l	hip_rotation_l	knee_angle_l	ankle_angle_l	subtalar_angle_l	lumbar_extension	lumbar_bending	lumbar_rotation
      2.77000000	     -5.28656241	      2.85224180	    -46.62841492	      0.09340802	      0.86460957	      0.28759858	     13.77894931	     -4.51904429	      5.73947585	    -66.03742869	    -11.81795930	      8.02065476	     25.10745615	     -3.59257582	     -4.07070407	    -28.24146390	     13.22570063	      1.09151276	     -2.52905363	     -0.70008002	     15.18646521
      2.78000000	     -5.42478917	      2.68596177	    -46.03766228	      0.10357423	      0.86702197	      0.29232246	     15.53684939	     -4.18536087	      5.06116271	    -67.40158486	    -10.37124749	      7.75295941	     23.88523474	     -3.35552179	     -3.74374661	    -27.30554781	     13.55902981	      1.24248566	     -2.54980075	     -0.38252106	     14.39414662
      2.79000000	     -5.57431564	      2.44474211	    -45.39227222	      0.11372494	      0.86946674	      0.29708215	     17.15513180	     -3.76560410	      4.33968722	    -68.42882876	     -8.72682867	      7.55709758	     22.60300299	     -3.18803318	     -3.33980512	    -26.32499427	     13.86150921	      1.40976461	     -2.60390088	      0.00271299	     13.57125879
      2.80000000	     -5.72620556	      2.15221403	    -44.69944002	      0.12386269	      0.87188430	      0.30188219	     18.65362739	     -3.29888481	      3.56806180	    -69.13306084	     -6.99133011	      7.48888567	     21.27435509	     -3.07242066	     -2.86317565	    -25.30576899	     14.13135072	      1.57793570	     -2.67363700	      0.42726790	     12.72748680
      2.81000000	     -5.87118756	      1.82422029	    -43.97069578	      0.13397996	      0.87423052	      0.30671003	     20.04544721	     -2.80720640	      2.76543179	    -69.52892333	     -5.25737632	      7.56720504	     19.90989592	     -2.99734744	     -2.32980444	    -24.25996187	     14.37706719	      1.73858285	     -2.75525627	      0.87349874	     11.85470313
      2.82000000	     -6.00027106	      1.44932434	    -43.22648855	      0.14407981	      0.87651538	      0.31160276	     21.31051141	     -2.29739385	      1.93595205	    -69.61141755	     -3.60190187	      7.92675666	     18.48194571	     -2.97611450	     -1.75599568	    -23.17123529	     14.59433126	      1.95480854	     -2.86134100	      1.34233459	     11.01135718
      2.83000000	     -6.12212000	      1.09672560	    -42.46001597	      0.15414246	      0.87858425	      0.31649454	     22.53238054	     -1.82933023	      1.08339413	    -69.43382956	     -2.07579638	      8.31819278	     17.07087561	     -2.95776694	     -1.13702683	    -22.07605434	     14.81783368	      2.06567944	     -2.93457877	      1.78650126	     10.14200777
      2.84000000	     -6.22004358	      0.72784207	    -41.72353280	      0.16412840	      0.88050992	      0.32147551	     23.65645902	     -1.36353613	      0.26455512	    -68.98109467	     -0.66835284	      8.99052831	     15.61732898	     -2.98407475	     -0.54410028	    -20.95745849	     15.02076557	      2.18397975	     -3.02141170	      2.21956757	      9.35257365
      2.85000000	     -6.30512722	      0.39088204	    -41.00818355	      0.17401054	      0.88218218	      0.32651141	     24.73814586	     -0.93871089	     -0.52405447	    -68.28867868	      0.61164126	      9.70185067	     14.18759224	     -3.02088022	      0.02095919	    -19.85323722	     15.21828109	      2.26553518	     -3.08091738	      2.60955132	      8.57222680
      2.86000000	     -6.37456962	      0.08759239	    -40.32584760	      0.18378766	      0.88359318	      0.33159183	     25.77210712	     -0.54970219	     -1.24974944	    -67.36482861	      1.77854502	     10.44544508	     12.77890664	     -3.06361692	      0.53668233	    -18.76313562	     15.40388839	      2.31990684	     -3.12030318	      2.95705581	      7.83179533
      2.87000000	     -6.43503913	     -0.18053274	    -39.67034617	      0.19345873	      0.88472423	      0.33671243	     26.76753732	     -0.22126683	     -1.96293815	    -66.22413309	      2.76436932	     11.02902983	     11.38936753	     -3.10805246	      1.06143790	    -17.67262895	     15.61109866	      2.35249618	     -3.13590609	      3.26047531	      7.14071205
      2.88000000	     -6.48164917	     -0.39730566	    -39.05816129	      0.20301300	      0.88556664	      0.34187935	     27.71518975	      0.06051975	     -2.58928824	    -64.85924437	      3.64296745	     11.53295743	     10.03958269	     -3.13956307	      1.52475822	    -16.61301592	     15.81276213	      2.37041168	     -3.12561054	      3.50751477	      6.48442882
      2.89000000	     -6.50859063	     -0.57816378	    -38.51334282	      0.21242594	      0.88614087	      0.34714522	     28.60084230	      0.30406574	     -3.13247501	    -63.28645628	      4.41607399	     12.03676896	      8.69699646	     -3.17112925	      1.90236232	    -15.56184567	     15.99452691	      2.36331793	     -3.11170864	      3.69983660	      5.94008454
      2.90000000	     -6.52755339	     -0.69975309	    -38.00206930	      0.22170586	      0.88639674	      0.35244298	     29.44893599	      0.49059890	     -3.60315935	    -61.51866685	      5.03975044	     12.32253146	      7.40494847	     -3.17473230	      2.26679106	    -14.54363079	     16.20260057	      2.35186719	     -3.07203871	      3.82943351	      5.40450206
      2.91000000	     -6.54541865	     -0.76433316	    -37.52856170	      0.23087672	      0.88635042	      0.35778337	     30.24735255	      0.62029269	     -4.00945790	    -59.54512506	      5.55869959	     12.47150048	      6.16682665	     -3.15607141	      2.58007477	    -13.55929210	     16.36614401	      2.33805498	     -3.00002008	      3.90637108	      4.90278445
      2.92000000	     -6.51129874	     -0.80621099	    -37.12760591	      0.23994037	      0.88608851	      0.36323652	     30.92780958	      0.72022496	     -4.29820661	    -57.37469180	      5.92809061	     12.55389316	      4.88304378	     -3.11140453	      2.82573073	    -12.56682234	     16.59781095	      2.28607747	     -2.97376009	      3.92097946	      4.50446171
      2.93000000	     -6.48096531	     -0.78526738	    -36.75258649	      0.24893324	      0.88552172	      0.36869581	     31.55587144	      0.76447759	     -4.51563487	    -55.00559499	      6.18768508	     12.51130210	      3.66834511	     -3.02809744	      3.04953429	    -11.62598501	     16.77816895	      2.23725245	     -2.91106638	      3.89075162	      4.09764394
      2.94000000	     -6.40582139	     -0.73730228	    -36.43165354	      0.25786167	      0.88472484	      0.37427360	     32.06623401	      0.76842560	     -4.65433086	    -52.45521102	      6.34281017	     12.32881261	      2.42742325	     -2.91162990	      3.21252172	    -10.69922341	     17.03781772	      2.14801726	     -2.88191645	      3.79895622	      3.77049307
      2.95000000	     -6.34110034	     -0.62883604	    -36.11880384	      0.26676336	      0.88363711	      0.37984631	     32.51998483	      0.71481946	     -4.74245433	    -49.71391015	      6.38613466	     12.07909448	      1.26498284	     -2.75634168	      3.36787332	     -9.83217863	     17.24624969	      2.07882183	     -2.81077497	      3.67073935	      3.42297643
      2.96000000	     -6.24424511	     -0.49366923	    -35.83560480	      0.27565919	      0.88232689	      0.38549019	     32.85872798	      0.61830318	     -4.77766179	    -46.79514655	      6.35186239	     11.71393113	      0.10350436	     -2.56585796	      3.48662847	     -9.00750034	     17.50740439	      1.98862050	     -2.75862159	      3.49854221	      3.10932220
      2.97000000	     -6.13072852	     -0.31710460	    -35.57476721	      0.28459694	      0.88077288	      0.39115732	     33.10888221	      0.46725544	     -4.77704528	    -43.71404286	      6.25287982	     11.24869024	     -1.01836405	     -2.32836069	      3.58796746	     -8.25726569	     17.80263506	      1.88662628	     -2.69846505	      3.29575563	      2.80571641
      2.98000000	     -6.02024651	     -0.09681881	    -35.31696479	      0.29356726	      0.87896355	      0.39686874	     33.29283238	      0.26548819	     -4.77042707	    -40.48247349	      6.09124447	     10.75674703	     -2.08604095	     -2.05921571	      3.67425549	     -7.56459485	     18.11235139	      1.79127123	     -2.60777249	      3.06164057	      2.49079180
      2.99000000	     -5.88300712	      0.15436493	    -35.06655956	      0.30259438	      0.87695710	      0.40260711	     33.37545332	      0.01138616	     -4.75671186	    -37.10867606	      5.91365787	     10.18775195	     -3.10904380	     -1.74419570	      3.76517221	     -6.98784489	     18.46695094	      1.68173670	     -2.52503955	      2.79319693	      2.19034216
      3.00000000	     -5.74609030	      0.44303384	    -34.81827421	      0.31170897	      0.87472490	      0.40839805	     33.39813027	     -0.28887146	     -4.77038680	    -33.62949947	      5.70870661	      9.59041464	     -4.08471125	     -1.39752957	      3.85369583	     -6.47744147	     18.84349636	      1.56458696	     -2.41316637	      2.50424867	      1.87213456
      3.01000000	     -5.60963508	      0.76454845	    -34.56357780	      0.32091188	      0.87229178	      0.41423447	     33.35931745	     -0.62930259	     -4.82363121	    -30.05977767	      5.48678142	      9.05282902	     -4.99990482	     -1.02329089	      3.95922796	     -6.06485840	     19.23969933	      1.45215811	     -2.27592892	      2.19780542	      1.54405368
      3.02000000	     -5.47419947	      1.10856262	    -34.30182336	      0.33021830	      0.86967466	      0.42014399	     33.26268101	     -0.99521589	     -4.92696337	    -26.44122055	      5.26899503	      8.60781688	     -5.86119043	     -0.63319981	      4.08309265	     -5.75380246	     19.66244499	      1.34319263	     -2.11709150	      1.88304410	      1.19553673
      3.03000000	     -5.33282542	      1.48013922	    -34.03310557	      0.33962431	      0.86688747	      0.42613678	     33.12488836	     -1.38865394	     -5.08196375	    -22.83290476	      5.05608662	      8.23541226	     -6.67515747	     -0.22059752	      4.22932174	     -5.53952301	     20.10587014	      1.22527050	     -1.94176883	      1.54683289	      0.83916991
      3.04000000	     -5.19287294	      1.88149377	    -33.75431324	      0.34911439	      0.86393902	      0.43221470	     32.97071386	     -1.80149049	     -5.28338149	    -19.29822967	      4.84053760	      8.00875433	     -7.42244052	      0.20937623	      4.42160098	     -5.44353222	     20.56132348	      1.11774586	     -1.74209183	      1.19124816	      0.49022626
      3.05000000	     -5.04604372	      2.28944057	    -33.46531117	      0.35868205	      0.86087526	      0.43842620	     32.79926381	     -2.21318932	     -5.52744709	    -15.92135478	      4.63485638	      7.92978707	     -8.13877561	      0.63347367	      4.65190722	     -5.44040005	     21.03576120	      1.00847343	     -1.54287999	      0.82580567	      0.12272570
      3.06000000	     -4.90618633	      2.70024782	    -33.16506890	      0.36834490	      0.85771414	      0.44474944	     32.64070529	     -2.61512484	     -5.80159489	    -12.78919760	      4.43119932	      8.03241672	     -8.80970677	      1.04143590	      4.93195372	     -5.54045455	     21.51225233	      0.91251360	     -1.33242328	      0.46985348	     -0.24307249
      3.07000000	     -4.77400834	      3.08139615	    -32.85591627	      0.37807516	      0.85452278	      0.45123383	     32.49460864	     -2.97861247	     -6.10429269	     -9.99184023	      4.24009641	      8.36082290	     -9.46474518	      1.39446974	      5.25667356	     -5.71942919	     21.98832562	      0.81647181	     -1.13429251	      0.14713173	     -0.62220677
      3.08000000	     -4.66819729	      3.44227235	    -32.53484968	      0.38785822	      0.85131328	      0.45781564	     32.40245647	     -3.30983309	     -6.39780816	     -7.60682706	      4.03192041	      8.86856062	    -10.06425263	      1.69456464	      5.63674899	     -6.00500683	     22.44902144	      0.75983643	     -0.92795935	     -0.13429166	     -0.99552965
